# File created by Blade
# Date/Time:  Wed Sep 24 20:21:23 2014
# Frame Rate: 120.000 fps
#------------------------------------------------------
:FULLY-SPECIFIED
:DEGREES
967
root -4.259784 32.865814 -4.670484 6.938811 1.048707 7.889814
Spine 4.048342 -8.729324 -6.935561
Head -19.985760 8.625032 1.251130
LeftShoulder 5.043317 1.281166 14.076100
LeftArm 43.105594 23.387875 -75.887965
LeftForeArm -10.013275 -0.000000 43.581454
LeftHand -25.882129 -0.000000 4.403084
LeftHandThumb1 -26.253704 0.000000 33.147579
RightShoulder -13.871447 17.834409 -33.557426
RightArm -11.925152 4.248411 46.171672
RightForeArm -29.416750 -0.000000 30.833292
RightHand -11.892948 -0.000000 -0.257957
RightHandThumb1 -24.326973 -0.000000 -32.862282
LeftUpLeg -17.764513 9.594740 -3.319471
LeftLeg 30.285680 -0.000000 -0.000000
LeftFoot -4.886158 1.702876 -29.035466
LeftToeBase -11.796223 -0.000000 0.000000
RightUpLeg -12.219358 2.745369 -7.214695
RightLeg 20.339081 -0.000000 -0.000000
RightFoot -14.899820 -18.394730 -11.166084
RightToeBase -1.251277 -0.000000 0.000000
968
root -4.196999 32.810056 -4.569120 6.760494 0.344199 6.981785
Spine 3.423619 -8.615077 -5.843509
Head -18.866280 8.909866 1.435444
LeftShoulder 4.592804 2.070104 14.143810
LeftArm 42.965389 24.138596 -75.082998
LeftForeArm -9.257602 -0.000000 44.661631
LeftHand -25.849263 0.000000 4.211555
LeftHandThumb1 -26.253704 0.000000 33.147579
RightShoulder -13.828679 17.776563 -33.395699
RightArm -11.872889 4.322282 47.413757
RightForeArm -29.801163 -0.000000 32.136003
RightHand -12.100833 0.000000 -0.787070
RightHandThumb1 -24.326973 -0.000000 -32.862282
LeftUpLeg -15.775327 8.704558 -2.647833
LeftLeg 27.580265 -0.000000 -0.000000
LeftFoot -9.491818 3.428679 -31.735787
LeftToeBase -3.261219 -0.000000 0.000000
RightUpLeg -12.114736 3.068931 -6.459298
RightLeg 20.529545 -0.000000 -0.000000
RightFoot -15.200690 -18.012365 -11.040093
RightToeBase -1.266021 -0.000000 0.000000
969
root -4.152787 32.764173 -4.469761 6.588038 -0.234895 6.063631
Spine 2.847921 -8.651759 -4.829018
Head -17.764103 9.238116 1.795192
LeftShoulder 3.949341 3.066909 14.204188
LeftArm 43.217095 25.257515 -73.651800
LeftForeArm -8.837434 -0.000000 45.745743
LeftHand -25.546433 -0.000000 4.934996
LeftHandThumb1 -26.253704 0.000000 33.147579
RightShoulder -13.845153 17.724429 -33.079240
RightArm -11.774720 4.284951 48.731088
RightForeArm -30.343198 -0.000000 33.518287
RightHand -12.494480 0.000000 -1.227281
RightHandThumb1 -24.326973 -0.000000 -32.862282
LeftUpLeg -13.920498 8.287616 -2.042968
LeftLeg 24.965636 -0.000000 -0.000000
LeftFoot -12.223060 4.553326 -30.164225
LeftToeBase -2.080543 -0.000000 0.000000
RightUpLeg -11.826644 3.371167 -5.670241
RightLeg 20.417405 -0.000000 -0.000000
RightFoot -15.406312 -17.658245 -10.843574
RightToeBase -1.330897 -0.000000 0.000000
970
root -4.111424 32.726685 -4.369773 6.429972 -0.745743 5.200703
Spine 2.277105 -8.717397 -3.932281
Head -16.550066 9.448608 2.335770
LeftShoulder 3.350130 4.067630 14.254286
LeftArm 43.495378 26.182581 -72.426973
LeftForeArm -8.124345 -0.000000 46.496498
LeftHand -25.481064 0.000000 5.031355
LeftHandThumb1 -26.253704 0.000000 33.147579
RightShoulder -13.917950 17.554980 -32.644517
RightArm -11.670799 4.242605 50.084260
RightForeArm -31.090044 0.000000 34.870255
RightHand -12.516622 -0.000000 -1.372665
RightHandThumb1 -24.326973 -0.000000 -32.862282
LeftUpLeg -12.183615 8.425211 -1.558901
LeftLeg 22.312345 -0.000000 -0.000000
LeftFoot -14.233262 5.863501 -28.615368
LeftToeBase 0.115608 -0.000000 -0.000000
RightUpLeg -11.491154 3.684046 -4.929156
RightLeg 20.232782 -0.000000 -0.000000
RightFoot -15.643051 -17.249386 -10.528443
RightToeBase -1.097049 -0.000000 0.000000
971
root -4.082445 32.694722 -4.276458 6.273370 -1.112462 4.334940
Spine 1.754067 -8.808151 -3.071190
Head -15.366745 9.552715 3.023255
LeftShoulder 2.841062 4.989870 14.354047
LeftArm 43.687045 27.034353 -71.406604
LeftForeArm -7.091208 -0.000000 47.105807
LeftHand -25.658628 0.000000 5.071293
LeftHandThumb1 -26.253704 0.000000 33.147579
RightShoulder -14.053498 17.253822 -32.157313
RightArm -11.656806 4.128666 51.494762
RightForeArm -31.935426 -0.000000 36.295428
RightHand -12.550711 -0.000000 -1.292378
RightHandThumb1 -24.326973 -0.000000 -32.862282
LeftUpLeg -10.592323 9.094227 -1.064514
LeftLeg 19.692382 -0.000000 -0.000000
LeftFoot -15.923280 7.286304 -27.522124
LeftToeBase 1.690255 -0.000000 -0.000000
RightUpLeg -11.089157 3.675703 -4.142505
RightLeg 19.913020 -0.000000 -0.000000
RightFoot -15.688387 -16.672586 -10.521373
RightToeBase -1.281622 -0.000000 0.000000
972
root -4.046818 32.670444 -4.170744 6.103412 -1.349701 3.567930
Spine 1.242042 -9.023018 -2.325098
Head -14.211032 9.569784 3.724727
LeftShoulder 2.202450 5.977909 14.386876
LeftArm 44.116741 28.098784 -70.133188
LeftForeArm -6.465178 -0.000000 47.533959
LeftHand -25.729809 -0.000000 5.568305
LeftHandThumb1 -26.253704 0.000000 33.147579
RightShoulder -14.306425 16.925515 -31.589545
RightArm -11.529151 3.566787 52.916674
RightForeArm -32.670889 -0.000000 37.604731
RightHand -12.604115 0.000000 -1.608309
RightHandThumb1 -24.326973 -0.000000 -32.862282
LeftUpLeg -8.973784 10.148234 -0.692634
LeftLeg 17.000373 -0.000000 -0.000000
LeftFoot -16.899624 8.572205 -25.609716
LeftToeBase 3.279123 -0.000000 -0.000000
RightUpLeg -10.550219 3.474934 -3.446959
RightLeg 19.454389 -0.000000 -0.000000
RightFoot -15.707608 -16.092472 -10.523495
RightToeBase -1.402613 -0.000000 0.000000
973
root -4.014760 32.651348 -4.074243 5.952621 -1.423289 2.839226
Spine 0.761181 -9.257638 -1.624208
Head -13.134385 9.442429 4.425082
LeftShoulder 1.663509 6.879379 14.455967
LeftArm 44.657344 29.280875 -68.745502
LeftForeArm -6.151193 -0.000000 47.812335
LeftHand -25.937338 -0.000000 6.609571
LeftHandThumb1 -26.253704 0.000000 33.147579
RightShoulder -14.597884 16.438874 -30.986047
RightArm -11.449771 3.032130 54.346452
RightForeArm -33.421283 -0.000000 38.862188
RightHand -12.415129 -0.000000 -1.462882
RightHandThumb1 -24.326973 -0.000000 -32.862282
LeftUpLeg -7.493061 11.501455 -0.310152
LeftLeg 14.498493 -0.000000 -0.000000
LeftFoot -17.488711 9.090631 -24.101144
LeftToeBase 5.516206 -0.000000 -0.000000
RightUpLeg -9.955055 3.173929 -2.774621
RightLeg 18.866114 -0.000000 -0.000000
RightFoot -15.664534 -15.573387 -10.502586
RightToeBase -1.555518 -0.000000 0.000000
